<svg width="1920" height="404" viewBox="0 0 1920 404" fill="none" xmlns="http://www.w3.org/2000/svg">
<path opacity="0.15" d="M-2.24601 461L-2.24565 460.409M-2.24449 458.476L-2.24164 453.625M-2.24108 452.659L-2.14643 280.935M-2.14587 279.968L-2.1455 279.377M135.227 460.939L135.227 460.348M135.228 458.415L135.231 453.584M135.231 452.618L135.326 280.874M135.327 279.908L135.327 279.317M-2.27371 279.545L-1.80045 279.544M-0.220938 279.543L3.72716 279.541M4.50687 279.55L134.231 279.484M135.011 279.474L135.494 279.484M272.66 460.898L272.66 460.307M272.661 458.374L272.654 453.533M272.655 452.567L272.759 280.833M272.76 279.867L272.76 279.276M135.159 279.484L135.633 279.484M137.212 279.483L141.16 279.48M141.94 279.49L271.664 279.423M272.454 279.423L272.927 279.423M410.102 460.847L410.103 460.256M410.104 458.323L410.107 453.492M410.107 452.525L410.202 280.782M410.203 279.816L410.203 279.225M272.602 279.433L273.085 279.423M274.655 279.431L278.603 279.429M279.393 279.429L409.107 279.372M409.897 279.372L410.38 279.362M547.545 460.796L547.546 460.205M547.547 458.272L547.55 453.441M547.56 452.465L547.645 280.731M547.645 279.765L547.646 279.174M410.045 279.363L410.528 279.372M412.108 279.371L416.046 279.359M416.836 279.358L546.55 279.302M547.34 279.302L547.823 279.312M685.018 460.755L685.018 460.164M685.019 458.231L685.022 453.38M685.023 452.414L685.117 280.69M685.118 279.724L685.118 279.133M547.508 279.311L548.001 279.311M549.58 279.31L553.509 279.308M554.298 279.307L684.013 279.251M684.803 279.251L685.296 279.25M822.411 460.695L822.412 460.104M822.413 458.171L822.416 453.319M822.416 452.353L822.511 280.629M822.512 279.663L822.512 279.072M684.911 279.241L685.384 279.241M686.964 279.239L690.912 279.237M691.702 279.237L821.416 279.181M822.206 279.18L822.679 279.18M959.854 460.663L959.855 460.072M959.866 458.129L959.859 453.288M959.859 452.322L959.964 280.588M959.964 279.622L959.965 279.031M822.354 279.19L822.837 279.2M824.407 279.188L828.355 279.186M829.144 279.186L958.859 279.13M959.649 279.13L960.132 279.139M-1.99786 279.998L-1.99757 279.505M-1.99663 277.927L-1.99431 274.003M-1.99388 273.214L-1.92765 143.625M-1.93706 142.846L-1.93677 142.353M135.475 279.937L135.475 279.445M135.476 277.867L135.468 273.933M135.469 273.144L135.525 143.564M135.535 142.785L135.536 142.293M-2.0748 142.531L-1.59167 142.521M-0.0121995 142.52L3.92602 142.527M4.71564 142.527L134.43 142.47M135.22 142.47L135.703 142.46M272.908 279.857L272.908 279.364M272.909 277.806L272.911 273.862M272.912 273.073L272.968 143.494M272.968 142.705L272.979 142.222M135.358 142.45L135.851 142.45M137.42 142.458L141.369 142.456M142.149 142.446L271.863 142.39M272.653 142.389L273.146 142.389M410.351 279.806L410.341 279.323M410.342 277.745L410.354 273.811M410.355 273.022L410.411 143.443M410.411 142.654L410.402 142.171M272.801 142.4L273.284 142.409M274.864 142.408L278.802 142.396M279.592 142.395L409.306 142.339M410.096 142.339L410.579 142.348M547.656 279.479L547.656 278.986M547.657 277.408L547.659 273.484M547.659 272.695L547.726 143.106M547.716 142.327L547.717 141.834M410.106 142.073L410.599 142.072M412.178 142.071L416.107 142.069M416.896 142.068L546.621 142.002M547.401 142.012L547.894 142.011M685.098 279.408L685.099 278.916M685.109 277.348L685.102 273.413M685.102 272.625L685.159 143.045M685.159 142.256L685.159 141.764M547.549 142.002L548.042 142.002M549.621 142L553.55 141.998M554.339 141.998L684.054 141.942M684.844 141.941L685.337 141.941M822.522 279.338L822.512 278.855M822.523 277.287L822.525 273.343M822.516 272.564L822.582 142.975M822.582 142.186L822.583 141.713M684.972 141.931L685.455 141.941M687.035 141.94L690.983 141.937M691.753 141.937L821.477 141.871M822.267 141.87L822.75 141.88M959.974 279.296L959.975 278.824M959.975 277.246L959.978 273.302M959.968 272.523L960.035 142.933M960.035 142.144L960.035 141.672M822.435 141.9L822.908 141.9M824.488 141.899L828.436 141.896M829.215 141.906L958.94 141.839M959.73 141.839L960.203 141.839M135.705 139.482L135.696 139M135.696 137.422L135.699 133.478M135.709 132.699L135.765 3.11933M135.766 2.33039L135.756 1.84778M273.158 139.421L273.168 138.939M273.169 137.361L273.161 133.427M273.162 132.638L273.228 3.04834M273.219 2.26928L273.229 1.78665M135.618 2.02485L136.101 2.01471M137.681 2.0135L141.619 2.02106M142.409 2.02051L272.133 1.95433M272.913 1.96406L273.396 1.95392M410.63 139.301L410.641 138.819M410.642 137.241L410.634 133.307M410.634 132.518L410.691 2.93824M410.691 2.1493L410.701 1.66667M273.091 1.9044L273.574 1.89426M275.153 1.89305L279.092 1.90061M279.881 1.90005L409.596 1.84376M410.386 1.84361L410.869 1.83347M548.113 139.231L548.113 138.738M548.114 137.16L548.116 133.236M548.117 132.447L548.173 2.86751M548.174 2.07856L548.174 1.58608M410.563 1.82443L411.056 1.82415M412.636 1.8229L416.564 1.8206M417.354 1.82038L547.068 1.76413M547.858 1.76365L548.351 1.76336M685.359 138.963L685.349 138.48M685.35 136.902L685.362 132.968M685.362 132.179L685.419 2.59959M685.419 1.81068L685.41 1.32807M547.809 1.55659L548.292 1.56611M549.862 1.5551L553.81 1.55278M554.6 1.55251L684.314 1.49625M685.104 1.49581L685.587 1.50538M822.614 138.902L822.614 138.41M822.615 136.832L822.617 132.908M822.618 132.119L822.674 2.53944M822.675 1.75085L822.675 1.25837M685.064 1.496L685.557 1.49571M687.127 1.48459L691.065 1.49216M691.855 1.49191L821.569 1.43565M822.359 1.43555L822.852 1.43526M959.85 138.625L959.85 138.152M959.851 136.574L959.853 132.63M959.854 131.841L959.91 2.26163M959.92 1.48262L959.911 1M822.31 1.22809L822.783 1.22781M824.363 1.22664L828.311 1.22432M829.1 1.22373L958.815 1.16745M959.605 1.1673L960.078 1.16702M-74 413.022L-73.507 413.021M-71.888 413.02L-67.8116 413.028M-66.9923 413.017L134.419 412.899M135.239 412.909L135.722 412.899M135.377 412.909L135.87 412.908M137.44 412.897L141.378 412.905M142.168 412.904L271.892 412.838M272.672 412.848L273.165 412.848M272.83 412.848L273.303 412.848M274.883 412.846L278.831 412.844M279.62 412.844L409.335 412.787M410.125 412.787L410.608 412.777M410.273 412.777L410.756 412.787M412.335 412.786L416.274 412.773M417.053 412.783L546.778 412.717M547.568 412.717L548.051 412.726M547.736 412.726L548.228 412.726M549.808 412.725L553.736 412.723M554.526 412.722L684.241 412.666M685.03 412.666L685.523 412.665M685.139 412.656L685.622 412.665M687.202 412.664L691.14 412.652M691.929 412.651L821.644 412.595M822.434 412.595L822.917 412.605M822.582 412.605L823.065 412.614M824.674 412.603L828.691 412.611M829.5 412.61L1028.31 412.494M1029.12 412.494L1029.6 412.484M1922.25 461L1922.25 460.409M1922.24 458.476L1922.24 453.625M1922.24 452.659L1922.15 280.935M1922.15 279.968L1922.15 279.377M1784.77 460.939L1784.77 460.348M1784.77 458.415L1784.77 453.584M1784.77 452.618L1784.67 280.874M1784.67 279.908L1784.67 279.317M1922.27 279.545L1921.8 279.544M1920.22 279.543L1916.27 279.541M1915.49 279.55L1785.77 279.484M1784.99 279.474L1784.51 279.484M1647.34 460.898L1647.34 460.307M1647.34 458.374L1647.35 453.533M1647.35 452.567L1647.24 280.833M1647.24 279.867L1647.24 279.276M1784.84 279.484L1784.37 279.484M1782.79 279.483L1778.84 279.48M1778.06 279.49L1648.34 279.423M1647.55 279.423L1647.07 279.423M1509.9 460.847L1509.9 460.256M1509.9 458.323L1509.89 453.492M1509.89 452.525L1509.8 280.782M1509.8 279.816L1509.8 279.225M1647.4 279.433L1646.91 279.423M1645.35 279.431L1641.4 279.429M1640.61 279.429L1510.89 279.372M1510.1 279.372L1509.62 279.362M1372.45 460.796L1372.45 460.205M1372.45 458.272L1372.45 453.441M1372.44 452.465L1372.36 280.731M1372.35 279.765L1372.35 279.174M1509.95 279.363L1509.47 279.372M1507.89 279.371L1503.95 279.359M1503.16 279.358L1373.45 279.302M1372.66 279.302L1372.18 279.312M1234.98 460.755L1234.98 460.164M1234.98 458.231L1234.98 453.38M1234.98 452.414L1234.88 280.69M1234.88 279.724L1234.88 279.133M1372.49 279.311L1372 279.311M1370.42 279.31L1366.49 279.308M1365.7 279.307L1235.99 279.251M1235.2 279.251L1234.7 279.25M1097.59 460.695L1097.59 460.104M1097.59 458.171L1097.58 453.319M1097.58 452.353L1097.49 280.629M1097.49 279.663L1097.49 279.072M1235.09 279.241L1234.62 279.241M1233.04 279.239L1229.09 279.237M1228.3 279.237L1098.58 279.181M1097.79 279.18L1097.32 279.18M960.146 460.663L960.145 460.072M960.134 458.129L960.141 453.288M960.141 452.322L960.036 280.588M960.036 279.622L960.035 279.031M1097.65 279.19L1097.16 279.2M1095.59 279.188L1091.64 279.186M1090.86 279.186L961.141 279.13M960.351 279.13L959.868 279.139M1922 279.998L1922 279.505M1922 277.927L1921.99 274.003M1921.99 273.214L1921.93 143.625M1921.94 142.846V142.353M1784.53 279.937L1784.52 279.445M1784.52 277.867L1784.53 273.933M1784.53 273.144L1784.47 143.564M1784.46 142.785L1784.46 142.293M1922.07 142.531L1921.59 142.521M1920.01 142.52L1916.07 142.527M1915.28 142.527L1785.57 142.47M1784.78 142.47L1784.3 142.46M1647.09 279.857L1647.09 279.364M1647.09 277.806L1647.09 273.862M1647.09 273.073L1647.03 143.494M1647.03 142.705L1647.02 142.222M1784.64 142.45L1784.15 142.45M1782.58 142.458L1778.63 142.456M1777.85 142.446L1648.14 142.39M1647.35 142.389L1646.85 142.389M1509.65 279.806L1509.66 279.323M1509.66 277.745L1509.65 273.811M1509.65 273.022L1509.59 143.443M1509.59 142.654L1509.6 142.171M1647.2 142.4L1646.72 142.409M1645.14 142.408L1641.2 142.396M1640.41 142.395L1510.69 142.339M1509.9 142.339L1509.42 142.348M1372.34 279.479L1372.34 278.986M1372.34 277.408L1372.34 273.484M1372.34 272.695L1372.27 143.106M1372.28 142.327L1372.28 141.834M1509.89 142.073L1509.4 142.072M1507.82 142.071L1503.89 142.069M1503.1 142.068L1373.38 142.002M1372.6 142.012L1372.11 142.011M1234.9 279.408L1234.9 278.916M1234.89 277.348L1234.9 273.413M1234.9 272.625L1234.84 143.045M1234.84 142.256L1234.84 141.764M1372.45 142.002L1371.96 142.002M1370.38 142L1366.45 141.998M1365.66 141.998L1235.95 141.942M1235.16 141.941L1234.66 141.941M1097.48 279.338L1097.49 278.855M1097.48 277.287L1097.47 273.343M1097.48 272.564L1097.42 142.975M1097.42 142.186L1097.42 141.713M1235.03 141.931L1234.54 141.941M1232.97 141.94L1229.02 141.937M1228.25 141.937L1098.52 141.871M1097.73 141.87L1097.25 141.88M960.026 279.296L960.025 278.824M960.025 277.246L960.022 273.302M960.032 272.523L959.965 142.933M959.965 142.144L959.965 141.672M1097.57 141.9L1097.09 141.9M1095.51 141.899L1091.56 141.896M1090.78 141.906L961.06 141.839M960.27 141.839L959.797 141.839M1784.29 139.482L1784.3 139M1784.3 137.422L1784.3 133.478M1784.29 132.699L1784.23 3.11933M1784.23 2.33039L1784.24 1.84778M1646.84 139.421L1646.83 138.939M1646.83 137.361L1646.84 133.427M1646.84 132.638L1646.77 3.04834M1646.78 2.26928L1646.77 1.78665M1784.38 2.02485L1783.9 2.01471M1782.32 2.0135L1778.38 2.02106M1777.59 2.02051L1647.87 1.95433M1647.09 1.96406L1646.6 1.95392M1509.37 139.301L1509.36 138.819M1509.36 137.241L1509.37 133.307M1509.37 132.518L1509.31 2.93824M1509.31 2.1493L1509.3 1.66667M1646.91 1.9044L1646.43 1.89426M1644.85 1.89305L1640.91 1.90061M1640.12 1.90005L1510.4 1.84376M1509.61 1.84361L1509.13 1.83347M1371.89 139.231L1371.89 138.738M1371.89 137.16L1371.88 133.236M1371.88 132.447L1371.83 2.86751M1371.83 2.07856L1371.83 1.58608M1509.44 1.82443L1508.94 1.82415M1507.36 1.8229L1503.44 1.8206M1502.65 1.82038L1372.93 1.76413M1372.14 1.76365L1371.65 1.76336M1234.64 138.963L1234.65 138.48M1234.65 136.902L1234.64 132.968M1234.64 132.179L1234.58 2.59959M1234.58 1.81068L1234.59 1.32807M1372.19 1.55659L1371.71 1.56611M1370.14 1.5551L1366.19 1.55278M1365.4 1.55251L1235.69 1.49625M1234.9 1.49581L1234.41 1.50538M1097.39 138.902L1097.39 138.41M1097.39 136.832L1097.38 132.908M1097.38 132.119L1097.33 2.53944M1097.33 1.75085L1097.33 1.25837M1234.94 1.496L1234.44 1.49571M1232.87 1.48459L1228.93 1.49216M1228.15 1.49191L1098.43 1.43565M1097.64 1.43555L1097.15 1.43526M960.15 138.625L960.15 138.152M960.149 136.574L960.147 132.63M960.146 131.841L960.09 2.26163M960.08 1.48262L960.089 1M1097.69 1.22809L1097.22 1.22781M1095.64 1.22664L1091.69 1.22432M1090.9 1.22373L961.185 1.16745M960.395 1.1673L959.922 1.16702M1994 413.022L1993.51 413.021M1991.89 413.02L1987.81 413.028M1986.99 413.017L1785.58 412.899M1784.76 412.909L1784.28 412.899M1784.62 412.909L1784.13 412.908M1782.56 412.897L1778.62 412.905M1777.83 412.904L1648.11 412.838M1647.33 412.848L1646.83 412.848M1647.17 412.848L1646.7 412.848M1645.12 412.846L1641.17 412.844M1640.38 412.844L1510.66 412.787M1509.88 412.787L1509.39 412.777M1509.73 412.777L1509.24 412.787M1507.66 412.786L1503.73 412.773M1502.95 412.783L1373.22 412.717M1372.43 412.717L1371.95 412.726M1372.26 412.726L1371.77 412.726M1370.19 412.725L1366.26 412.723M1365.47 412.722L1235.76 412.666M1234.97 412.666L1234.48 412.665M1234.86 412.656L1234.38 412.665M1232.8 412.664L1228.86 412.652M1228.07 412.651L1098.36 412.595M1097.57 412.595L1097.08 412.605M1097.42 412.605L1096.94 412.614M1095.33 412.603L1091.31 412.611M1090.5 412.61L891.693 412.494M890.884 412.494L890.401 412.484M405.597 421.56L414.977 421.554L414.987 404.027L405.607 404.032L405.597 421.56ZM268.009 421.602L277.389 421.597L277.4 404.069L268.02 404.074L268.009 421.602ZM130.71 421.664L140.09 421.659L140.1 404.131L130.72 404.136L130.71 421.664ZM-6.74028 421.725L2.6399 421.719L2.65019 404.192L-6.73 404.197L-6.74028 421.725ZM542.893 421.416L552.273 421.411L552.283 403.883L542.903 403.889L542.893 421.416ZM680.347 421.338L689.727 421.332L689.738 403.805L680.357 403.81L680.347 421.338ZM818.232 421.369L827.612 421.363L827.623 403.836L818.242 403.841L818.232 421.369ZM955.229 421.323L964.609 421.317L964.619 403.79L955.239 403.795L955.229 421.323ZM1514.4 421.56L1505.02 421.554L1505.01 404.027L1514.39 404.032L1514.4 421.56ZM1651.99 421.602L1642.61 421.597L1642.6 404.069L1651.98 404.074L1651.99 421.602ZM1789.29 421.664L1779.91 421.659L1779.9 404.131L1789.28 404.136L1789.29 421.664ZM1926.74 421.725L1917.36 421.719L1917.35 404.192L1926.73 404.197L1926.74 421.725ZM1377.11 421.416L1367.73 421.411L1367.72 403.883L1377.1 403.889L1377.11 421.416ZM1239.65 421.338L1230.27 421.332L1230.26 403.805L1239.64 403.81L1239.65 421.338ZM1101.77 421.369L1092.39 421.363L1092.38 403.836L1101.76 403.841L1101.77 421.369ZM964.771 421.323L955.391 421.317L955.381 403.79L964.761 403.795L964.771 421.323Z" stroke="url(#paint0_linear_119_6696)" stroke-miterlimit="10"/>
<defs>
<linearGradient id="paint0_linear_119_6696" x1="960" y1="1" x2="960" y2="403.5" gradientUnits="userSpaceOnUse">
<stop offset="0.53" stop-color="#6D3E2F"/>
<stop offset="1" stop-color="#6D3E2F" stop-opacity="0"/>
</linearGradient>
</defs>
</svg>
