<svg width="1920" height="427" viewBox="0 0 1920 427" fill="none" xmlns="http://www.w3.org/2000/svg">
<path opacity="0.08" d="M66.6188 -2.19863e-06L66.6191 0.547283M66.6202 2.33753L66.6228 6.83009M66.6234 7.72494L66.7112 166.756M66.7118 167.651L66.7121 168.198M194.253 0.0562618L194.253 0.603547M194.254 2.39388L194.257 6.86815M194.257 7.76292L194.345 166.812M194.346 167.707L194.346 168.255M66.5931 168.043L67.0325 168.044M68.4989 168.045L72.1645 168.047M72.8884 168.038L193.329 168.099M194.053 168.109L194.502 168.1M321.85 0.0942372L321.851 0.641549M321.852 2.43191L321.845 6.91534M321.846 7.81013L321.943 166.85M321.943 167.745L321.944 168.293M194.19 168.1L194.63 168.1M196.096 168.101L199.762 168.103M200.486 168.094L320.926 168.156M321.66 168.156L322.099 168.156M449.457 0.141508L449.457 0.688793M449.458 2.47909L449.461 6.95334M449.461 7.8483L449.549 166.898M449.55 167.792L449.55 168.34M321.797 168.147L322.245 168.156M323.703 168.148L327.368 168.151M328.101 168.151L448.533 168.203M449.266 168.203L449.715 168.213M577.063 0.188641L577.064 0.735926M577.065 2.52609L577.067 7.00039M577.077 7.90448L577.156 166.945M577.156 167.839L577.157 168.387M449.404 168.212L449.852 168.203M451.319 168.204L454.975 168.215M455.708 168.216L576.139 168.268M576.873 168.268L577.321 168.259M704.697 0.226562L704.698 0.773901M704.699 2.56431L704.701 7.05682M704.702 7.9515L704.79 166.983M704.79 167.877L704.791 168.425M577.028 168.259L577.486 168.26M578.953 168.261L582.6 168.263M583.333 168.263L703.764 168.315M704.498 168.316L704.955 168.316M832.258 0.28288L832.258 0.830165M832.26 2.62033L832.262 7.11284M832.263 8.00769L832.351 167.039M832.351 167.934L832.351 168.481M704.598 168.325L705.038 168.325M706.504 168.326L710.17 168.328M710.903 168.328L831.334 168.381M832.067 168.381L832.507 168.381M959.865 0.311808L959.865 0.85912M959.875 2.65863L959.869 7.14204M959.869 8.03686L959.966 167.077M959.967 167.972L959.967 168.519M832.205 168.372L832.654 168.363M834.111 168.373L837.776 168.375M838.509 168.376L958.941 168.428M959.674 168.428L960.123 168.419M66.8492 167.624L66.8494 168.08M66.8503 169.541L66.8525 173.176M66.8529 173.906L66.9144 293.917M66.9056 294.639L66.9059 295.095M194.483 167.68L194.484 168.136M194.484 169.597L194.477 173.24M194.478 173.971L194.53 293.973M194.54 294.694L194.54 295.15M66.7777 294.93L67.2263 294.939M68.6927 294.941L72.3491 294.934M73.0822 294.934L193.513 294.986M194.247 294.986L194.695 294.996M322.081 167.754L322.081 168.211M322.082 169.653L322.084 173.306M322.084 174.037L322.137 294.038M322.137 294.769L322.147 295.216M194.375 295.005L194.833 295.005M196.29 294.997L199.955 294.999M200.68 295.009L321.111 295.061M321.844 295.061L322.302 295.061M449.687 167.802L449.678 168.249M449.679 169.71L449.69 173.353M449.691 174.084L449.743 294.086M449.744 294.816L449.735 295.263M321.982 295.052L322.43 295.043M323.897 295.044L327.553 295.055M328.286 295.056L448.717 295.108M449.451 295.108L449.899 295.099M577.166 168.105L577.166 168.561M577.167 170.022L577.169 173.656M577.169 174.387L577.231 294.398M577.222 295.119L577.222 295.575M449.46 295.355L449.918 295.355M451.384 295.356L455.031 295.358M455.765 295.358L576.205 295.42M576.929 295.411L577.387 295.411M704.772 168.17L704.772 168.626M704.782 170.078L704.775 173.721M704.776 174.452L704.828 294.454M704.829 295.185L704.829 295.641M577.067 295.42L577.524 295.42M578.991 295.421L582.638 295.423M583.371 295.424L703.802 295.476M704.536 295.476L704.994 295.476M832.361 168.235L832.352 168.682M832.362 170.134L832.364 173.787M832.355 174.508L832.416 294.519M832.417 295.25L832.417 295.687M704.655 295.485L705.104 295.477M706.57 295.478L710.235 295.48M710.95 295.48L831.391 295.541M832.124 295.542L832.573 295.533M959.976 168.273L959.976 168.711M959.977 170.172L959.979 173.825M959.971 174.546L960.032 294.557M960.032 295.288L960.033 295.726M832.28 295.514L832.719 295.515M834.186 295.516L837.851 295.518M838.575 295.509L959.016 295.57M959.749 295.571L960.188 295.571M194.697 297.753L194.688 298.2M194.689 299.662L194.691 303.314M194.701 304.035L194.753 424.037M194.754 424.768L194.745 425.215M322.313 297.81L322.322 298.257M322.323 299.718L322.316 303.361M322.317 304.092L322.378 424.103M322.369 424.825L322.379 425.271M194.617 425.051L195.065 425.06M196.532 425.061L200.188 425.054M200.921 425.055L321.362 425.116M322.086 425.107L322.534 425.117M449.947 297.921L449.956 298.368M449.957 299.829L449.95 303.473M449.951 304.203L450.003 424.205M450.003 424.936L450.013 425.383M322.251 425.162L322.699 425.172M324.166 425.173L327.822 425.166M328.555 425.166L448.986 425.219M449.72 425.219L450.168 425.228M577.59 297.986L577.591 298.443M577.591 299.904L577.594 303.538M577.594 304.269L577.646 424.271M577.647 425.001L577.647 425.457M449.885 425.237L450.342 425.237M451.809 425.238L455.456 425.24M456.189 425.24L576.62 425.292M577.354 425.293L577.812 425.293M705.014 298.234L705.005 298.681M705.006 300.143L705.017 303.786M705.017 304.517L705.07 424.519M705.07 425.249L705.061 425.696M577.308 425.485L577.757 425.476M579.214 425.486L582.88 425.488M583.613 425.488L704.044 425.54M704.777 425.541L705.226 425.532M832.446 298.29L832.446 298.746M832.447 300.208L832.449 303.842M832.45 304.572L832.502 424.574M832.503 425.305L832.503 425.761M704.741 425.541L705.198 425.541M706.656 425.551L710.312 425.544M711.045 425.544L831.476 425.597M832.21 425.597L832.667 425.597M959.86 298.548L959.86 298.985M959.861 300.447L959.864 304.099M959.864 304.83L959.916 424.832M959.926 425.553L959.917 426M832.164 425.789L832.603 425.789M834.07 425.79L837.735 425.792M838.469 425.793L958.9 425.845M959.633 425.845L960.072 425.845M0 44.4322L0.457714 44.4325M1.96083 44.4336L5.7455 44.4267M6.50614 44.4362L193.504 44.5455M194.264 44.5366L194.713 44.546M194.393 44.5367L194.85 44.537M196.308 44.5471L199.964 44.5401M200.697 44.5407L321.138 44.6019M321.862 44.5929L322.32 44.5931M322.008 44.5931L322.448 44.5934M323.914 44.5944L327.58 44.5966M328.313 44.597L448.744 44.6491M449.478 44.6492L449.926 44.6586M449.615 44.6585L450.064 44.6496M451.53 44.6507L455.186 44.662M455.91 44.6532L576.351 44.7145M577.084 44.7146L577.533 44.7057M577.24 44.7056L577.698 44.7059M579.164 44.7068L582.811 44.709M583.544 44.7094L703.976 44.7615M704.709 44.7617L705.167 44.762M704.81 44.771L705.258 44.7621M706.725 44.7632L710.381 44.7745M711.114 44.7749L831.546 44.827M832.279 44.8273L832.727 44.8184M832.416 44.8182L832.865 44.8093M834.359 44.8195L838.089 44.8126M838.84 44.8129L1023.42 44.9207M1024.17 44.921L1024.62 44.9304M1853.38 -2.19863e-06L1853.38 0.547283M1853.38 2.33753L1853.38 6.83009M1853.38 7.72494L1853.29 166.756M1853.29 167.651L1853.29 168.198M1725.75 0.0562618L1725.75 0.603547M1725.75 2.39388L1725.74 6.86815M1725.74 7.76292L1725.65 166.812M1725.65 167.707L1725.65 168.255M1853.41 168.043L1852.97 168.044M1851.5 168.045L1847.84 168.047M1847.11 168.038L1726.67 168.099M1725.95 168.109L1725.5 168.1M1598.15 0.0942372L1598.15 0.641549M1598.15 2.43191L1598.15 6.91534M1598.15 7.81013L1598.06 166.85M1598.06 167.745L1598.06 168.293M1725.81 168.1L1725.37 168.1M1723.9 168.101L1720.24 168.103M1719.51 168.094L1599.07 168.156M1598.34 168.156L1597.9 168.156M1470.54 0.141508L1470.54 0.688793M1470.54 2.47909L1470.54 6.95334M1470.54 7.8483L1470.45 166.898M1470.45 167.792L1470.45 168.34M1598.2 168.147L1597.75 168.156M1596.3 168.148L1592.63 168.151M1591.9 168.151L1471.47 168.203M1470.73 168.203L1470.29 168.213M1342.94 0.188641L1342.94 0.735926M1342.94 2.52609L1342.93 7.00039M1342.92 7.90448L1342.84 166.945M1342.84 167.839L1342.84 168.387M1470.6 168.212L1470.15 168.203M1468.68 168.204L1465.02 168.215M1464.29 168.216L1343.86 168.268M1343.13 168.268L1342.68 168.259M1215.3 0.226562L1215.3 0.773901M1215.3 2.56431L1215.3 7.05682M1215.3 7.9515L1215.21 166.983M1215.21 167.877L1215.21 168.425M1342.97 168.259L1342.51 168.26M1341.05 168.261L1337.4 168.263M1336.67 168.263L1216.24 168.315M1215.5 168.316L1215.04 168.316M1087.74 0.28288L1087.74 0.830165M1087.74 2.62033L1087.74 7.11284M1087.74 8.00769L1087.65 167.039M1087.65 167.934L1087.65 168.481M1215.4 168.325L1214.96 168.325M1213.5 168.326L1209.83 168.328M1209.1 168.328L1088.67 168.381M1087.93 168.381L1087.49 168.381M960.135 0.311808L960.135 0.85912M960.125 2.65863L960.131 7.14204M960.131 8.03686L960.034 167.077M960.033 167.972L960.033 168.519M1087.79 168.372L1087.35 168.363M1085.89 168.373L1082.22 168.375M1081.49 168.376L961.059 168.428M960.326 168.428L959.877 168.419M1853.15 167.624L1853.15 168.08M1853.15 169.541L1853.15 173.176M1853.15 173.906L1853.09 293.917M1853.09 294.639V295.095M1725.52 167.68L1725.52 168.136M1725.52 169.597L1725.52 173.24M1725.52 173.971L1725.47 293.973M1725.46 294.694L1725.46 295.15M1853.22 294.93L1852.77 294.939M1851.31 294.941L1847.65 294.934M1846.92 294.934L1726.49 294.986M1725.75 294.986L1725.3 294.996M1597.92 167.754L1597.92 168.211M1597.92 169.653L1597.92 173.306M1597.92 174.037L1597.86 294.038M1597.86 294.769L1597.85 295.216M1725.63 295.005L1725.17 295.005M1723.71 294.997L1720.04 294.999M1719.32 295.009L1598.89 295.061M1598.16 295.061L1597.7 295.061M1470.31 167.802L1470.32 168.249M1470.32 169.71L1470.31 173.353M1470.31 174.084L1470.26 294.086M1470.26 294.816L1470.27 295.263M1598.02 295.052L1597.57 295.043M1596.1 295.044L1592.45 295.055M1591.71 295.056L1471.28 295.108M1470.55 295.108L1470.1 295.099M1342.83 168.105L1342.83 168.561M1342.83 170.022L1342.83 173.656M1342.83 174.387L1342.77 294.398M1342.78 295.119L1342.78 295.575M1470.54 295.355L1470.08 295.355M1468.62 295.356L1464.97 295.358M1464.24 295.358L1343.79 295.42M1343.07 295.411L1342.61 295.411M1215.23 168.17L1215.23 168.626M1215.22 170.078L1215.22 173.721M1215.22 174.452L1215.17 294.454M1215.17 295.185L1215.17 295.641M1342.93 295.42L1342.48 295.42M1341.01 295.421L1337.36 295.423M1336.63 295.424L1216.2 295.476M1215.46 295.476L1215.01 295.476M1087.64 168.235L1087.65 168.682M1087.64 170.134L1087.64 173.787M1087.64 174.508L1087.58 294.519M1087.58 295.25L1087.58 295.687M1215.34 295.485L1214.9 295.477M1213.43 295.478L1209.76 295.48M1209.05 295.48L1088.61 295.541M1087.88 295.542L1087.43 295.533M960.024 168.273L960.024 168.711M960.023 170.172L960.021 173.825M960.029 174.546L959.968 294.557M959.967 295.288L959.967 295.726M1087.72 295.514L1087.28 295.515M1085.81 295.516L1082.15 295.518M1081.42 295.509L960.984 295.57M960.251 295.571L959.812 295.571M1725.3 297.753L1725.31 298.2M1725.31 299.662L1725.31 303.314M1725.3 304.035L1725.25 424.037M1725.25 424.768L1725.26 425.215M1597.69 297.81L1597.68 298.257M1597.68 299.718L1597.68 303.361M1597.68 304.092L1597.62 424.103M1597.63 424.825L1597.62 425.271M1725.38 425.051L1724.93 425.06M1723.47 425.061L1719.81 425.054M1719.08 425.055L1598.64 425.116M1597.91 425.107L1597.47 425.117M1470.05 297.921L1470.04 298.368M1470.04 299.829L1470.05 303.473M1470.05 304.203L1470 424.205M1470 424.936L1469.99 425.383M1597.75 425.162L1597.3 425.172M1595.83 425.173L1592.18 425.166M1591.44 425.166L1471.01 425.219M1470.28 425.219L1469.83 425.228M1342.41 297.986L1342.41 298.443M1342.41 299.904L1342.41 303.538M1342.41 304.269L1342.35 424.271M1342.35 425.001L1342.35 425.457M1470.12 425.237L1469.66 425.237M1468.19 425.238L1464.54 425.24M1463.81 425.24L1343.38 425.292M1342.65 425.293L1342.19 425.293M1214.99 298.234L1215 298.681M1214.99 300.143L1214.98 303.786M1214.98 304.517L1214.93 424.519M1214.93 425.249L1214.94 425.696M1342.69 425.485L1342.24 425.476M1340.79 425.486L1337.12 425.488M1336.39 425.488L1215.96 425.54M1215.22 425.541L1214.77 425.532M1087.55 298.29L1087.55 298.746M1087.55 300.208L1087.55 303.842M1087.55 304.572L1087.5 424.574M1087.5 425.305L1087.5 425.761M1215.26 425.541L1214.8 425.541M1213.34 425.551L1209.69 425.544M1208.95 425.544L1088.52 425.597M1087.79 425.597L1087.33 425.597M960.14 298.548L960.139 298.985M960.138 300.447L960.136 304.099M960.136 304.83L960.084 424.832M960.074 425.553L960.083 426M1087.84 425.789L1087.4 425.789M1085.93 425.79L1082.26 425.792M1081.53 425.793L961.1 425.845M960.367 425.845L959.927 425.845M1920 44.4322L1919.54 44.4325M1918.04 44.4336L1914.25 44.4267M1913.49 44.4362L1726.5 44.5455M1725.74 44.5366L1725.29 44.546M1725.61 44.5367L1725.15 44.537M1723.69 44.5471L1720.04 44.5401M1719.3 44.5407L1598.86 44.6019M1598.14 44.5929L1597.68 44.5931M1597.99 44.5931L1597.55 44.5934M1596.09 44.5944L1592.42 44.5966M1591.69 44.597L1471.26 44.6491M1470.52 44.6492L1470.07 44.6586M1470.38 44.6585L1469.94 44.6496M1468.47 44.6507L1464.81 44.662M1464.09 44.6532L1343.65 44.7145M1342.92 44.7146L1342.47 44.7057M1342.76 44.7056L1342.3 44.7059M1340.84 44.7068L1337.19 44.709M1336.46 44.7094L1216.02 44.7615M1215.29 44.7617L1214.83 44.762M1215.19 44.771L1214.74 44.7621M1213.28 44.7632L1209.62 44.7745M1208.89 44.7749L1088.45 44.827M1087.72 44.8273L1087.27 44.8184M1087.58 44.8182L1087.14 44.8093M1085.64 44.8195L1081.91 44.8126M1081.16 44.8129L896.582 44.9207M895.83 44.921L895.382 44.9304M445.274 36.525L453.982 36.5301L453.992 52.7623L445.283 52.7572L445.274 36.525ZM317.533 36.4859L326.242 36.491L326.251 52.7232L317.542 52.7181L317.533 36.4859ZM190.06 36.4284L198.768 36.4335L198.778 52.6657L190.069 52.6606L190.06 36.4284ZM62.4462 36.3721L71.155 36.3772L71.1646 52.6093L62.4557 52.6043L62.4462 36.3721ZM572.744 36.6578L581.453 36.6629L581.462 52.8951L572.753 52.89L572.744 36.6578ZM700.361 36.7307L709.07 36.7358L709.079 52.968L700.37 52.9629L700.361 36.7307ZM828.378 36.7019L837.087 36.707L837.096 52.9392L828.387 52.9341L828.378 36.7019ZM955.57 36.7445L964.279 36.7495L964.289 52.9817L955.58 52.9766L955.57 36.7445ZM1474.73 36.525L1466.02 36.5301L1466.01 52.7623L1474.72 52.7572L1474.73 36.525ZM1602.47 36.4859L1593.76 36.491L1593.75 52.7232L1602.46 52.7181L1602.47 36.4859ZM1729.94 36.4284L1721.23 36.4335L1721.22 52.6657L1729.93 52.6606L1729.94 36.4284ZM1857.55 36.3721L1848.84 36.3772L1848.84 52.6093L1857.54 52.6043L1857.55 36.3721ZM1347.26 36.6578L1338.55 36.6629L1338.54 52.8951L1347.25 52.89L1347.26 36.6578ZM1219.64 36.7307L1210.93 36.7358L1210.92 52.968L1219.63 52.9629L1219.64 36.7307ZM1091.62 36.7019L1082.91 36.707L1082.9 52.9392L1091.61 52.9341L1091.62 36.7019ZM964.429 36.7445L955.721 36.7495L955.711 52.9817L964.42 52.9766L964.429 36.7445Z" stroke="#6D3E2F" stroke-miterlimit="10"/>
</svg>
