<svg width="48" height="60" viewBox="0 0 48 60" fill="none" xmlns="http://www.w3.org/2000/svg">
<path d="M24 0.25C17.8028 0.257311 11.8615 2.72238 7.47947 7.10445C3.09739 11.4865 0.632326 17.4278 0.625015 23.625C0.619317 28.6891 2.27339 33.6155 5.33401 37.65C5.33401 37.65 5.97151 38.4894 6.07564 38.6105L24 59.75L41.9329 38.5999C42.0264 38.4873 42.666 37.65 42.666 37.65L42.6681 37.6436C45.7267 33.6106 47.3799 28.6866 47.375 23.625C47.3677 17.4278 44.9026 11.4865 40.5206 7.10445C36.1385 2.72238 30.1972 0.257311 24 0.25ZM26.125 34.25H21.875V30H26.125V34.25ZM26.125 25.75H21.875V21.5H26.125V25.75ZM34.625 34.25H30.375V17.25H17.625V34.25H13.375V17.25C13.375 16.1228 13.8228 15.0418 14.6198 14.2448C15.4168 13.4478 16.4978 13 17.625 13H30.375C31.5022 13 32.5832 13.4478 33.3802 14.2448C34.1772 15.0418 34.625 16.1228 34.625 17.25V34.25Z" fill="url(#paint0_linear_14_4386)"/>
<defs>
<linearGradient id="paint0_linear_14_4386" x1="53.4971" y1="0.249985" x2="-17.942" y2="3.60575" gradientUnits="userSpaceOnUse">
<stop stop-color="#6E3E2F"/>
<stop offset="1" stop-color="#925846"/>
</linearGradient>
</defs>
</svg>
