<svg width="58" height="52" viewBox="0 0 58 52" fill="none" xmlns="http://www.w3.org/2000/svg">
<path d="M54.5 11.8333H37.5C36.7486 11.8333 36.0279 12.1318 35.4966 12.6632C34.9652 13.1946 34.6667 13.9152 34.6667 14.6667V23.1667H29V3.33333C29 2.58189 28.7015 1.86122 28.1702 1.32986C27.6388 0.798511 26.9181 0.5 26.1667 0.5H3.50002C2.74857 0.5 2.0279 0.798511 1.49655 1.32986C0.965198 1.86122 0.666687 2.58189 0.666687 3.33333V48.6667C0.666687 49.4181 0.965198 50.1388 1.49655 50.6701C2.0279 51.2015 2.74857 51.5 3.50002 51.5H54.5C55.2515 51.5 55.9721 51.2015 56.5035 50.6701C57.0348 50.1388 57.3334 49.4181 57.3334 48.6667V14.6667C57.3334 13.9152 57.0348 13.1946 56.5035 12.6632C55.9721 12.1318 55.2515 11.8333 54.5 11.8333ZM17.6667 9H23.3334V14.6667H17.6667V9ZM12 37.3333H6.33335V31.6667H12V37.3333ZM12 26H6.33335V20.3333H12V26ZM12 14.6667H6.33335V9H12V14.6667ZM23.3334 37.3333H17.6667V31.6667H23.3334V37.3333ZM23.3334 26H17.6667V20.3333H23.3334V26ZM48.8334 37.3333H43.1667V31.6667H48.8334V37.3333ZM48.8334 26H43.1667V20.3333H48.8334V26Z" fill="url(#paint0_linear_14_4373)"/>
<defs>
<linearGradient id="paint0_linear_14_4373" x1="64.754" y1="0.499987" x2="-21.6485" y2="6.2395" gradientUnits="userSpaceOnUse">
<stop stop-color="#6E3E2F"/>
<stop offset="1" stop-color="#925846"/>
</linearGradient>
</defs>
</svg>
