<svg width="69" height="34" viewBox="0 0 69 34" fill="none" xmlns="http://www.w3.org/2000/svg">
<path d="M0.5 34V29.5375C0.5 27.5069 1.53889 25.8542 3.61667 24.5792C5.69444 23.3042 8.43333 22.6667 11.8333 22.6667C12.4472 22.6667 13.0375 22.6789 13.6042 22.7035C14.1708 22.7281 14.7139 22.7866 15.2333 22.8792C14.5722 23.8708 14.0764 24.9097 13.7458 25.9958C13.4153 27.0819 13.25 28.2153 13.25 29.3958V34H0.5ZM17.5 34V29.3958C17.5 27.8847 17.9137 26.503 18.741 25.2507C19.5683 23.9983 20.7366 22.9009 22.2458 21.9583C23.7551 21.0158 25.5618 20.3074 27.666 19.8333C29.7702 19.3592 32.0482 19.1231 34.5 19.125C37.0028 19.125 39.3053 19.3611 41.4077 19.8333C43.51 20.3056 45.3158 21.0139 46.825 21.9583C48.3342 22.9028 49.4912 24.0012 50.2958 25.2535C51.1005 26.5058 51.5019 27.8866 51.5 29.3958V34H17.5ZM55.75 34V29.3958C55.75 28.1681 55.597 27.0111 55.291 25.925C54.985 24.8389 54.5241 23.8236 53.9083 22.8792C54.4278 22.7847 54.9595 22.7262 55.5035 22.7035C56.0475 22.6808 56.6019 22.6686 57.1667 22.6667C60.5667 22.6667 63.3056 23.2928 65.3833 24.5452C67.4611 25.7975 68.5 27.4616 68.5 29.5375V34H55.75ZM11.8333 19.8333C10.275 19.8333 8.94144 19.2789 7.83267 18.1702C6.72389 17.0614 6.16856 15.7269 6.16667 14.1667C6.16667 12.5611 6.722 11.2153 7.83267 10.1292C8.94333 9.04305 10.2769 8.5 11.8333 8.5C13.4389 8.5 14.7847 9.04305 15.8708 10.1292C16.9569 11.2153 17.5 12.5611 17.5 14.1667C17.5 15.725 16.9569 17.0595 15.8708 18.1702C14.7847 19.2808 13.4389 19.8352 11.8333 19.8333ZM57.1667 19.8333C55.6083 19.8333 54.2748 19.2789 53.166 18.1702C52.0572 17.0614 51.5019 15.7269 51.5 14.1667C51.5 12.5611 52.0553 11.2153 53.166 10.1292C54.2767 9.04305 55.6102 8.5 57.1667 8.5C58.7722 8.5 60.1181 9.04305 61.2042 10.1292C62.2903 11.2153 62.8333 12.5611 62.8333 14.1667C62.8333 15.725 62.2903 17.0595 61.2042 18.1702C60.1181 19.2808 58.7722 19.8352 57.1667 19.8333ZM34.5 17C32.1389 17 30.1319 16.1736 28.4792 14.5208C26.8264 12.8681 26 10.8611 26 8.5C26 6.09167 26.8264 4.07339 28.4792 2.44517C30.1319 0.816944 32.1389 0.00188889 34.5 0C36.9083 0 38.9276 0.815055 40.5577 2.44517C42.1878 4.07528 43.0019 6.09356 43 8.5C43 10.8611 42.1859 12.8681 40.5577 14.5208C38.9294 16.1736 36.9102 17 34.5 17Z" fill="url(#paint0_linear_14_4379)"/>
<defs>
<linearGradient id="paint0_linear_14_4379" x1="77.4048" y1="-8.46427e-06" x2="-25.2679" y2="12.2765" gradientUnits="userSpaceOnUse">
<stop stop-color="#6E3E2F"/>
<stop offset="1" stop-color="#925846"/>
</linearGradient>
</defs>
</svg>
