<svg width="348" height="93" viewBox="0 0 348 93" fill="none" xmlns="http://www.w3.org/2000/svg">
<path d="M44.6301 18.109V86.7157C44.6301 89.7192 47.0651 92.1513 50.072 92.1513H60.5963C63.5869 92.1513 66.0055 89.7355 66.0055 86.7483V18.109H96.2056C104.344 18.109 110.946 11.5144 110.946 3.38544V0.790039H0V3.46705C0 11.6124 6.63488 18.2233 14.7896 18.1906L44.6301 18.0927V18.109Z" fill="#6D3E2F"/>
<path d="M240.048 75.0114V14.9744C240.048 6.86176 246.634 0.299805 254.74 0.299805H255.982C257.322 0.299805 258.613 0.773179 259.642 1.62199L327.413 57.9536V4.13577C327.413 2.01375 329.129 0.299805 331.253 0.299805C340.797 0.299805 348.543 8.03703 348.543 17.5698V76.5131C348.543 85.0828 341.598 92.0202 333.018 92.0202C330.55 92.0202 328.148 91.1551 326.269 89.5554L262.813 37.0271V89.0983C262.796 90.4205 261.718 91.4979 260.394 91.4979H256.537C247.419 91.4979 240.032 84.1198 240.032 75.0114H240.048Z" fill="#6D3E2F"/>
<path d="M224.491 57.8724C224.115 49.825 219.147 44.6669 211.074 44.0792C204.848 43.6385 198.572 43.7691 192.313 43.867C185.204 43.9813 183.227 46.0217 183.325 52.6326C183.423 59.0966 185.368 60.8106 192.722 60.9412C194.454 60.9738 196.17 61.0391 197.902 60.9412C202.756 60.6963 202.658 63.912 202.74 67.3889C202.838 71.1106 201.694 72.9551 197.641 72.9225C180.171 72.8082 162.701 72.7919 145.232 72.9225C140.64 72.9551 139.986 70.6045 140.019 66.8175C140.133 52.502 140.051 38.1865 140.1 23.8547V18.7619C140.1 18.3375 140.444 18.011 140.852 18.011H223.69C224.344 8.1191 217.251 0.6104 206.825 0.496137C183.096 0.251288 159.368 0.251288 135.639 0.496137C126.014 0.594076 118.578 7.05809 118.333 16.3134C117.81 36.342 117.81 56.387 118.3 76.4156C118.529 85.573 125.834 91.8411 134.969 91.8901C159.123 92.0207 183.292 92.0207 207.446 91.8901C216.941 91.8411 223.788 85.3444 224.376 75.9423C224.752 69.9353 224.769 63.863 224.491 57.8561V57.8724Z" fill="#6D3E2F"/>
</svg>
