<svg width="550" height="79" viewBox="0 0 550 79" fill="none" xmlns="http://www.w3.org/2000/svg">
<path d="M37.9538 15.9107V74.1224C37.9538 76.6708 40.0054 78.7345 42.5389 78.7345H51.4061C53.9258 78.7345 55.9636 76.6847 55.9636 74.1501V15.9107H81.4086C88.2656 15.9107 93.8282 10.3153 93.8282 3.41798V1.21582H0.35083V3.48723C0.35083 10.3984 5.94103 16.0077 12.8117 15.98L37.9538 15.8969V15.9107Z" fill="#6D3E2F"/>
<path d="M202.603 64.1914V13.251C202.603 6.36752 208.152 0.799805 214.981 0.799805H216.028C217.157 0.799805 218.244 1.20146 219.112 1.92166L276.212 49.7182V4.05456C276.212 2.25406 277.657 0.799805 279.447 0.799805C287.488 0.799805 294.015 7.36472 294.015 15.4531V65.4656C294.015 72.7369 288.163 78.6232 280.934 78.6232C278.855 78.6232 276.831 77.8891 275.248 76.5318L221.783 31.9624V76.144C221.769 77.2659 220.86 78.18 219.745 78.18H216.496C208.813 78.18 202.589 71.9198 202.589 64.1914H202.603Z" fill="#6D3E2F"/>
<path d="M189.495 49.6493C189.178 42.8212 184.993 38.4446 178.191 37.946C172.945 37.572 167.657 37.6828 162.384 37.7659C156.394 37.8629 154.728 39.5941 154.811 45.2034C154.894 50.688 156.532 52.1423 162.728 52.2531C164.188 52.2808 165.633 52.3362 167.093 52.2531C171.182 52.0453 171.1 54.7738 171.168 57.7238C171.251 60.8816 170.287 62.4467 166.873 62.419C152.154 62.322 137.435 62.3082 122.716 62.419C118.846 62.4467 118.296 60.4523 118.323 57.2391C118.42 45.0926 118.351 32.9461 118.392 20.7858V16.4646C118.392 16.1045 118.681 15.8275 119.025 15.8275H188.82C189.371 7.43433 183.395 1.06331 174.611 0.96636C154.618 0.758609 134.626 0.758609 114.633 0.96636C106.523 1.04946 100.258 6.53408 100.052 14.387C99.6113 31.3811 99.6113 48.3889 100.024 65.3829C100.217 73.1528 106.372 78.4712 114.069 78.5127C134.419 78.6235 154.783 78.6235 175.134 78.5127C183.134 78.4712 188.903 72.9589 189.399 64.9812C189.715 59.8844 189.729 54.7322 189.495 49.6354V49.6493Z" fill="#6D3E2F"/>
<path d="M355.893 74.8974V41.0617C355.893 39.746 356.953 38.6934 358.247 38.6934H393.22C397.709 38.6934 401.344 42.3498 401.344 46.8649V58.9421C401.344 59.7039 400.807 60.3271 400.077 60.4933C398.976 60.7565 397.558 61.6152 397.558 64.2744C397.558 64.2744 397.558 66.8366 400.187 67.4183C400.876 67.5707 401.344 68.2355 401.344 68.9418V74.8835C401.344 76.9887 399.637 78.7061 397.544 78.7061H395.451C393.344 78.7061 391.637 76.9887 391.637 74.8697V71.8919H383.582C380.539 71.8919 378.074 69.4127 378.074 66.3519V62.1969C378.074 59.1222 380.553 56.643 383.596 56.643H391.059V47.3912H366.164V74.8974C366.164 77.0026 364.471 78.7061 362.378 78.7061H359.679C357.586 78.7061 355.879 76.9887 355.879 74.8835L355.893 74.8974Z" fill="#6D3E2F"/>
<path d="M454.864 38.6935H459.215C460.729 38.6935 461.969 39.9262 461.969 41.4635V69.1913H490.03V41.4635C490.03 39.94 491.255 38.6935 492.784 38.6935H496.129C497.672 38.6935 498.925 39.9539 498.925 41.5051V70.7148C498.925 75.1191 495.372 78.6925 490.994 78.6925H460.041C455.663 78.6925 452.11 75.1191 452.11 70.7148V41.4497C452.11 39.9262 453.336 38.6797 454.864 38.6797V38.6935Z" fill="#6D3E2F"/>
<path d="M502.174 74.6889V41.4489C502.174 39.9392 503.399 38.7065 504.9 38.7065H541.746C546.111 38.7065 549.649 42.266 549.649 46.6565V59.0661C549.649 63.4566 546.111 67.016 541.746 67.016H525.622C521.258 67.016 517.719 63.4566 517.719 59.0661V57.9166C517.719 57.2241 518.27 56.67 518.958 56.67H538.29V47.9584H513.396V74.6613C513.396 76.8911 511.592 78.7055 509.375 78.7055H506.167C503.964 78.7055 502.174 76.905 502.174 74.6889Z" fill="#6D3E2F"/>
<path d="M353.166 63.8168C353.001 60.2989 350.853 58.0414 347.342 57.7921C344.643 57.5982 341.917 57.6536 339.205 57.6951C336.12 57.7505 335.267 58.6369 335.308 61.5316C335.349 64.357 336.189 65.1049 339.384 65.1603C340.127 65.1603 340.884 65.2018 341.628 65.1603C343.735 65.0495 343.693 65.7005 343.721 67.2101C343.762 68.8306 343.831 69.7031 342.069 69.6893C334.496 69.6339 326.358 69.5646 318.785 69.6339C316.789 69.6477 316.513 68.6228 316.527 66.9747C316.582 60.7283 316.541 55.2298 316.568 48.9696V47.8339C316.568 47.6538 316.748 47.5015 316.927 47.5015H316.899H352.822C353.111 43.1803 350.027 38.8175 345.511 38.776C335.225 38.6652 324.94 38.6652 314.641 38.776C310.469 38.8175 307.247 41.6429 307.137 45.6733C306.916 54.4127 306.903 63.1659 307.123 71.9191C307.219 75.9218 310.386 78.6502 314.352 78.6779C324.83 78.7333 335.308 78.7333 345.772 78.6779C349.889 78.6502 352.863 75.8248 353.111 71.7114C353.277 69.0937 353.277 66.4345 353.153 63.8168H353.166Z" fill="#6D3E2F"/>
<path d="M441.301 38.7217H411.85C407.471 38.7217 403.919 42.295 403.919 46.6855V70.7291C403.919 75.1334 407.471 78.7067 411.85 78.7067H441.301C445.666 78.7067 449.219 75.1334 449.219 70.7291V46.6855C449.219 42.295 445.666 38.7217 441.301 38.7217ZM440.324 70.0228H412.813V47.4057H440.324V70.0228Z" fill="#6D3E2F"/>
</svg>
