<svg width="669" height="94" viewBox="0 0 669 94" fill="none" xmlns="http://www.w3.org/2000/svg">
<g opacity="0.15">
<mask id="path-1-inside-1_119_6741" fill="white">
<path d="M45.7973 88.4372C45.7973 91.5109 48.296 94 51.3816 94H62.1811C65.2499 94 67.7318 91.5276 67.7318 88.4706V18.2257H98.7217C107.073 18.2257 113.848 11.4768 113.848 3.15771V0.501602H0V3.24124C0 11.5771 6.8084 18.3426 15.1763 18.3092L45.7973 18.209V88.4372Z"/>
<path d="M246.326 76.4592V15.0179C246.326 6.71545 253.084 0 261.402 0H262.676C264.052 0 265.376 0.484448 266.433 1.35311L335.976 59.0024V3.9257C335.976 1.75403 337.737 0 339.917 0C349.71 0 357.659 7.91821 357.659 17.674V77.9961C357.659 86.7662 350.532 93.8659 341.728 93.8659C339.195 93.8659 336.73 92.9805 334.802 91.3434L269.686 37.5865V90.8757C269.669 92.2288 268.563 93.3313 267.204 93.3313H263.247C253.889 93.3313 246.309 85.7806 246.309 76.4592H246.326Z"/>
<path d="M230.362 58.9196C229.976 50.6839 224.878 45.4051 216.594 44.8038C210.205 44.3527 203.766 44.4864 197.343 44.5866C190.048 44.7035 188.019 46.7917 188.12 53.5572C188.22 60.1724 190.216 61.9265 197.762 62.0601C199.54 62.0935 201.3 62.1603 203.078 62.0601C208.059 61.8095 207.958 65.1004 208.042 68.6586C208.142 72.4674 206.969 74.3551 202.81 74.3216C184.883 74.2047 166.957 74.188 149.03 74.3216C144.318 74.3551 143.647 71.9495 143.681 68.0739C143.798 53.4236 143.714 38.7732 143.764 24.1061V18.8942C143.764 18.4598 144.117 18.1257 144.536 18.1257H229.54C230.211 8.00244 222.933 0.318096 212.234 0.20116C187.885 -0.049416 163.536 -0.049416 139.186 0.20116C129.309 0.301391 121.679 6.91661 121.428 16.3884C120.891 36.8855 120.891 57.3994 121.394 77.8965C121.629 87.2681 129.125 93.6828 138.499 93.733C163.284 93.8666 188.086 93.8666 212.871 93.733C222.614 93.6828 229.641 87.0342 230.245 77.4121C230.63 71.2646 230.647 65.0503 230.362 58.9028V58.9196Z"/>
<path d="M433.021 89.372V48.5615C433.021 46.9745 434.312 45.7049 435.888 45.7049H478.482C483.949 45.7049 488.376 50.1151 488.376 55.5609V70.1278C488.376 71.0465 487.722 71.7983 486.834 71.9987C485.492 72.3161 483.765 73.3518 483.765 76.5592C483.765 76.5592 483.765 79.6497 486.968 80.3513C487.806 80.535 488.376 81.3369 488.376 82.1888V89.3553C488.376 91.8945 486.297 93.9659 483.748 93.9659H481.199C478.633 93.9659 476.554 91.8945 476.554 89.3386V85.747H466.744C463.038 85.747 460.036 82.7568 460.036 79.065V74.0535C460.036 70.3449 463.055 67.3547 466.761 67.3547H475.85V56.1957H445.531V89.372C445.531 91.9112 443.468 93.9659 440.919 93.9659H437.632C435.083 93.9659 433.004 91.8945 433.004 89.3553L433.021 89.372Z"/>
<path d="M553.559 45.7052H558.858C560.703 45.7052 562.212 47.192 562.212 49.0462V82.4898H596.388V49.0462C596.388 47.2087 597.881 45.7052 599.742 45.7052H603.817C605.695 45.7052 607.221 47.2254 607.221 49.0964V84.3274C607.221 89.6396 602.895 93.9495 597.562 93.9495H559.865C554.532 93.9495 550.205 89.6396 550.205 84.3274V49.0295C550.205 47.192 551.698 45.6885 553.559 45.6885V45.7052Z"/>
<path d="M611.179 89.1211V49.0289C611.179 47.2081 612.671 45.7213 614.499 45.7213H659.374C664.69 45.7213 669 50.0145 669 55.31V70.2778C669 75.5733 664.69 79.8665 659.374 79.8665H639.737C634.421 79.8665 630.112 75.5733 630.112 70.2778V68.8913C630.112 68.056 630.782 67.3878 631.621 67.3878H655.165V56.8803H624.846V89.0877C624.846 91.7773 622.649 93.9656 619.949 93.9656H616.042C613.359 93.9656 611.179 91.794 611.179 89.1211Z"/>
<path d="M429.7 76.0075C429.499 71.7644 426.883 69.0415 422.607 68.7408C419.32 68.5069 416 68.5737 412.696 68.6238C408.94 68.6907 407.9 69.7598 407.95 73.2511C408 76.659 409.023 77.5611 412.914 77.6279C413.82 77.6279 414.742 77.678 415.647 77.6279C418.213 77.4942 418.163 78.2794 418.196 80.1002C418.247 82.0547 418.33 83.1071 416.184 83.0904C406.961 83.0236 397.05 82.9401 387.827 83.0236C385.395 83.0403 385.06 81.8042 385.077 79.8162C385.144 72.2822 385.093 65.6503 385.127 58.0996V56.7298C385.127 56.5126 385.345 56.3289 385.563 56.3289H385.529H429.281C429.633 51.1169 425.877 45.8548 420.376 45.8047C407.85 45.671 395.323 45.671 382.779 45.8047C377.698 45.8548 373.774 49.2626 373.64 54.1238C373.372 64.6647 373.355 75.2224 373.623 85.78C373.741 90.6077 377.598 93.8986 382.427 93.932C395.189 93.9989 407.95 93.9989 420.695 93.932C425.709 93.8986 429.331 90.4908 429.633 85.5294C429.834 82.3721 429.834 79.1647 429.683 76.0075H429.7Z"/>
<path d="M537.041 45.7393H501.172C495.839 45.7393 491.512 50.0492 491.512 55.3447V84.3448C491.512 89.657 495.839 93.9669 501.172 93.9669H537.041C542.357 93.9669 546.684 89.657 546.684 84.3448V55.3447C546.684 50.0492 542.357 45.7393 537.041 45.7393ZM535.851 83.4928H502.345V56.2134H535.851V83.4928Z"/>
</mask>
<path d="M45.7973 88.4372C45.7973 91.5109 48.296 94 51.3816 94H62.1811C65.2499 94 67.7318 91.5276 67.7318 88.4706V18.2257H98.7217C107.073 18.2257 113.848 11.4768 113.848 3.15771V0.501602H0V3.24124C0 11.5771 6.8084 18.3426 15.1763 18.3092L45.7973 18.209V88.4372Z" stroke="#6D3E2F" stroke-width="2" mask="url(#path-1-inside-1_119_6741)"/>
<path d="M246.326 76.4592V15.0179C246.326 6.71545 253.084 0 261.402 0H262.676C264.052 0 265.376 0.484448 266.433 1.35311L335.976 59.0024V3.9257C335.976 1.75403 337.737 0 339.917 0C349.71 0 357.659 7.91821 357.659 17.674V77.9961C357.659 86.7662 350.532 93.8659 341.728 93.8659C339.195 93.8659 336.73 92.9805 334.802 91.3434L269.686 37.5865V90.8757C269.669 92.2288 268.563 93.3313 267.204 93.3313H263.247C253.889 93.3313 246.309 85.7806 246.309 76.4592H246.326Z" stroke="#6D3E2F" stroke-width="2" mask="url(#path-1-inside-1_119_6741)"/>
<path d="M230.362 58.9196C229.976 50.6839 224.878 45.4051 216.594 44.8038C210.205 44.3527 203.766 44.4864 197.343 44.5866C190.048 44.7035 188.019 46.7917 188.12 53.5572C188.22 60.1724 190.216 61.9265 197.762 62.0601C199.54 62.0935 201.3 62.1603 203.078 62.0601C208.059 61.8095 207.958 65.1004 208.042 68.6586C208.142 72.4674 206.969 74.3551 202.81 74.3216C184.883 74.2047 166.957 74.188 149.03 74.3216C144.318 74.3551 143.647 71.9495 143.681 68.0739C143.798 53.4236 143.714 38.7732 143.764 24.1061V18.8942C143.764 18.4598 144.117 18.1257 144.536 18.1257H229.54C230.211 8.00244 222.933 0.318096 212.234 0.20116C187.885 -0.049416 163.536 -0.049416 139.186 0.20116C129.309 0.301391 121.679 6.91661 121.428 16.3884C120.891 36.8855 120.891 57.3994 121.394 77.8965C121.629 87.2681 129.125 93.6828 138.499 93.733C163.284 93.8666 188.086 93.8666 212.871 93.733C222.614 93.6828 229.641 87.0342 230.245 77.4121C230.63 71.2646 230.647 65.0503 230.362 58.9028V58.9196Z" stroke="#6D3E2F" stroke-width="2" mask="url(#path-1-inside-1_119_6741)"/>
<path d="M433.021 89.372V48.5615C433.021 46.9745 434.312 45.7049 435.888 45.7049H478.482C483.949 45.7049 488.376 50.1151 488.376 55.5609V70.1278C488.376 71.0465 487.722 71.7983 486.834 71.9987C485.492 72.3161 483.765 73.3518 483.765 76.5592C483.765 76.5592 483.765 79.6497 486.968 80.3513C487.806 80.535 488.376 81.3369 488.376 82.1888V89.3553C488.376 91.8945 486.297 93.9659 483.748 93.9659H481.199C478.633 93.9659 476.554 91.8945 476.554 89.3386V85.747H466.744C463.038 85.747 460.036 82.7568 460.036 79.065V74.0535C460.036 70.3449 463.055 67.3547 466.761 67.3547H475.85V56.1957H445.531V89.372C445.531 91.9112 443.468 93.9659 440.919 93.9659H437.632C435.083 93.9659 433.004 91.8945 433.004 89.3553L433.021 89.372Z" stroke="#6D3E2F" stroke-width="2" mask="url(#path-1-inside-1_119_6741)"/>
<path d="M553.559 45.7052H558.858C560.703 45.7052 562.212 47.192 562.212 49.0462V82.4898H596.388V49.0462C596.388 47.2087 597.881 45.7052 599.742 45.7052H603.817C605.695 45.7052 607.221 47.2254 607.221 49.0964V84.3274C607.221 89.6396 602.895 93.9495 597.562 93.9495H559.865C554.532 93.9495 550.205 89.6396 550.205 84.3274V49.0295C550.205 47.192 551.698 45.6885 553.559 45.6885V45.7052Z" stroke="#6D3E2F" stroke-width="2" mask="url(#path-1-inside-1_119_6741)"/>
<path d="M611.179 89.1211V49.0289C611.179 47.2081 612.671 45.7213 614.499 45.7213H659.374C664.69 45.7213 669 50.0145 669 55.31V70.2778C669 75.5733 664.69 79.8665 659.374 79.8665H639.737C634.421 79.8665 630.112 75.5733 630.112 70.2778V68.8913C630.112 68.056 630.782 67.3878 631.621 67.3878H655.165V56.8803H624.846V89.0877C624.846 91.7773 622.649 93.9656 619.949 93.9656H616.042C613.359 93.9656 611.179 91.794 611.179 89.1211Z" stroke="#6D3E2F" stroke-width="2" mask="url(#path-1-inside-1_119_6741)"/>
<path d="M429.7 76.0075C429.499 71.7644 426.883 69.0415 422.607 68.7408C419.32 68.5069 416 68.5737 412.696 68.6238C408.94 68.6907 407.9 69.7598 407.95 73.2511C408 76.659 409.023 77.5611 412.914 77.6279C413.82 77.6279 414.742 77.678 415.647 77.6279C418.213 77.4942 418.163 78.2794 418.196 80.1002C418.247 82.0547 418.33 83.1071 416.184 83.0904C406.961 83.0236 397.05 82.9401 387.827 83.0236C385.395 83.0403 385.06 81.8042 385.077 79.8162C385.144 72.2822 385.093 65.6503 385.127 58.0996V56.7298C385.127 56.5126 385.345 56.3289 385.563 56.3289H385.529H429.281C429.633 51.1169 425.877 45.8548 420.376 45.8047C407.85 45.671 395.323 45.671 382.779 45.8047C377.698 45.8548 373.774 49.2626 373.64 54.1238C373.372 64.6647 373.355 75.2224 373.623 85.78C373.741 90.6077 377.598 93.8986 382.427 93.932C395.189 93.9989 407.95 93.9989 420.695 93.932C425.709 93.8986 429.331 90.4908 429.633 85.5294C429.834 82.3721 429.834 79.1647 429.683 76.0075H429.7Z" stroke="#6D3E2F" stroke-width="2" mask="url(#path-1-inside-1_119_6741)"/>
<path d="M537.041 45.7393H501.172C495.839 45.7393 491.512 50.0492 491.512 55.3447V84.3448C491.512 89.657 495.839 93.9669 501.172 93.9669H537.041C542.357 93.9669 546.684 89.657 546.684 84.3448V55.3447C546.684 50.0492 542.357 45.7393 537.041 45.7393ZM535.851 83.4928H502.345V56.2134H535.851V83.4928Z" stroke="#6D3E2F" stroke-width="2" mask="url(#path-1-inside-1_119_6741)"/>
</g>
</svg>
