<svg width="24" height="24" viewBox="0 0 24 24" fill="none" xmlns="http://www.w3.org/2000/svg">
<rect width="24" height="24" rx="12" transform="matrix(-1 0 0 1 24 0)" fill="url(#paint0_linear_20_16094)"/>
<path d="M10.2458 12.6L15.2473 7.98296C15.4824 7.76592 15.6 7.48969 15.6 7.15426C15.6 6.81883 15.4824 6.5426 15.2473 6.32556C15.0122 6.10852 14.713 6 14.3496 6C13.9862 6 13.687 6.10852 13.4519 6.32556L7.55267 11.7713C7.42442 11.8897 7.33337 12.0179 7.27951 12.1561C7.22565 12.2942 7.19914 12.4422 7.2 12.6C7.20085 12.7578 7.22736 12.9058 7.27951 13.0439C7.33166 13.1821 7.42271 13.3103 7.55267 13.4287L13.4519 18.8744C13.687 19.0915 13.9862 19.2 14.3496 19.2C14.713 19.2 15.0122 19.0915 15.2473 18.8744C15.4824 18.6574 15.6 18.3812 15.6 18.0457C15.6 17.7103 15.4824 17.4341 15.2473 17.217L10.2458 12.6Z" fill="white"/>
<defs>
<linearGradient id="paint0_linear_20_16094" x1="27.1429" y1="-5.97478e-06" x2="-9.48172" y2="2.18959" gradientUnits="userSpaceOnUse">
<stop stop-color="#6E3E2F"/>
<stop offset="1" stop-color="#925846"/>
</linearGradient>
</defs>
</svg>
