<svg width="5" height="8" viewBox="0 0 5 8" fill="none" xmlns="http://www.w3.org/2000/svg">
<path d="M2.97455 4.33317L0.195928 1.76815C0.0653092 1.64757 0 1.49411 0 1.30776C0 1.12141 0.0653092 0.967949 0.195928 0.847371C0.326547 0.726793 0.492789 0.666504 0.694654 0.666504C0.89652 0.666504 1.06276 0.726793 1.19338 0.847371L4.47073 3.87278C4.54197 3.93855 4.59256 4.0098 4.62248 4.08653C4.65241 4.16326 4.66713 4.24548 4.66666 4.33317C4.66618 4.42086 4.65146 4.50308 4.62248 4.57981C4.59351 4.65654 4.54292 4.72779 4.47073 4.79356L1.19338 7.81897C1.06276 7.93955 0.89652 7.99984 0.694654 7.99984C0.492789 7.99984 0.326547 7.93955 0.195928 7.81897C0.0653092 7.69839 0 7.54493 0 7.35858C0 7.17223 0.0653092 7.01877 0.195928 6.89819L2.97455 4.33317Z" fill="#212121"/>
</svg>
