<svg width="303" height="302" viewBox="0 0 303 302" fill="none" xmlns="http://www.w3.org/2000/svg">
<path opacity="0.5" d="M97.3328 249.336C97.5247 249.017 97.6102 248.591 97.5678 248.165C97.4406 247.142 96.4825 246.397 95.4599 246.526C94.8421 246.59 94.3305 246.974 94.032 247.485M101.704 241.857C101.896 241.537 101.982 241.111 101.939 240.685C101.812 239.662 100.854 238.917 99.8313 239.046C99.2135 239.11 98.7019 239.494 98.4034 240.005M124.615 259.865C124.722 259.503 124.722 259.077 124.573 258.672C124.212 257.714 123.105 257.203 122.146 257.566C121.549 257.78 121.144 258.27 120.973 258.824M127.155 251.62C127.262 251.258 127.262 250.831 127.113 250.427C126.752 249.468 125.644 248.958 124.686 249.321C124.089 249.534 123.684 250.024 123.513 250.578M153.181 263.023C153.181 262.639 153.032 262.234 152.776 261.894C152.138 261.085 150.966 260.936 150.114 261.576C149.624 261.981 149.368 262.535 149.41 263.131M153.079 254.395C153.079 254.011 152.93 253.607 152.675 253.266C152.036 252.457 150.865 252.309 150.012 252.948C149.522 253.353 149.266 253.907 149.308 254.504M182.517 258.425C182.432 258.042 182.219 257.701 181.9 257.424C181.112 256.764 179.919 256.85 179.237 257.618C178.832 258.108 178.704 258.704 178.853 259.28M180.733 249.948C180.648 249.564 180.435 249.224 180.115 248.947C179.328 248.287 178.135 248.373 177.452 249.14C177.047 249.63 176.919 250.227 177.068 250.802M209.962 246.48C209.749 246.139 209.451 245.884 209.046 245.735C208.067 245.352 206.98 245.842 206.596 246.78C206.361 247.355 206.446 247.994 206.765 248.484M205.535 239.069C205.323 238.728 205.024 238.473 204.62 238.324C203.64 237.941 202.553 238.432 202.169 239.369C201.935 239.945 202.02 240.584 202.339 241.073M232.575 227.997C232.298 227.72 231.936 227.529 231.51 227.486C230.488 227.359 229.529 228.063 229.379 229.107C229.315 229.724 229.527 230.321 229.932 230.725M226.465 221.887C226.188 221.61 225.826 221.418 225.4 221.376C224.377 221.249 223.418 221.952 223.269 222.996C223.204 223.614 223.417 224.21 223.822 224.615M250.334 203.595C249.994 203.382 249.61 203.297 249.184 203.34C248.14 203.447 247.394 204.363 247.5 205.407C247.564 206.025 247.925 206.557 248.415 206.834M242.988 199.062C242.647 198.849 242.264 198.764 241.837 198.807C240.794 198.914 240.047 199.83 240.153 200.874C240.217 201.492 240.579 202.024 241.069 202.301M260.682 176.854C260.32 176.748 259.894 176.748 259.489 176.897C258.53 177.26 258.018 178.368 258.38 179.326C258.593 179.923 259.082 180.327 259.657 180.476M252.418 174.388C252.056 174.281 251.63 174.282 251.225 174.431C250.266 174.794 249.754 175.902 250.116 176.86C250.329 177.456 250.818 177.861 251.393 178.01M263.766 147.923C263.383 147.923 262.978 148.03 262.637 148.286C261.806 148.904 261.635 150.097 262.252 150.928C262.635 151.439 263.189 151.694 263.786 151.694M255.118 147.8C254.734 147.801 254.329 147.907 253.988 148.163C253.157 148.781 252.986 149.974 253.603 150.805C253.986 151.316 254.54 151.571 255.137 151.571M259.438 118.911C259.076 119.018 258.713 119.253 258.457 119.594C257.839 120.425 257.988 121.596 258.797 122.235C259.308 122.618 259.904 122.703 260.479 122.553M251.086 121.217C250.724 121.324 250.361 121.558 250.105 121.899C249.487 122.73 249.636 123.902 250.445 124.541C250.956 124.924 251.552 125.009 252.127 124.859M247.184 91.4381C246.843 91.6513 246.565 91.9284 246.395 92.312C245.989 93.2709 246.415 94.3783 247.373 94.7825C247.948 95.0165 248.587 94.9735 249.078 94.6537M239.64 95.6604C239.299 95.8736 239.022 96.1506 238.851 96.5342C238.446 97.493 238.871 98.6005 239.83 99.0047C240.405 99.2387 241.044 99.1958 241.534 98.8759M228.216 68.5062C227.939 68.7833 227.747 69.1455 227.683 69.5503C227.533 70.5942 228.257 71.5312 229.28 71.701C229.897 71.8071 230.494 71.5511 230.899 71.1461M222.014 74.5384C221.736 74.8155 221.545 75.1777 221.48 75.5825C221.331 76.6264 222.054 77.5633 223.077 77.7331C223.695 77.8393 224.291 77.5833 224.696 77.1783M204.474 51.3287C204.261 51.6697 204.196 52.0745 204.239 52.5005C204.366 53.5229 205.282 54.268 206.326 54.1609C206.943 54.0966 207.455 53.7129 207.753 53.2015M200.038 58.7447C199.825 59.0857 199.761 59.4904 199.803 59.9165C199.931 60.9389 200.846 61.684 201.89 61.5768C202.508 61.5126 203.019 61.1288 203.318 60.6174M177.51 41.2895C177.425 41.673 177.446 42.0778 177.595 42.4825C177.999 43.4409 179.107 43.9089 180.065 43.5035C180.641 43.2689 181.046 42.7787 181.195 42.2034M175.29 49.6416C175.205 50.0251 175.226 50.4299 175.375 50.8346C175.779 51.7929 176.886 52.2609 177.845 51.8556C178.42 51.6209 178.825 51.1308 178.975 50.5555M148.903 38.3452C148.902 38.7287 149.051 39.1333 149.285 39.4527C149.924 40.2619 151.117 40.4317 151.927 39.7921C152.438 39.4084 152.673 38.833 152.652 38.2579M148.961 46.9729C148.961 47.3564 149.11 47.761 149.344 48.0804C149.983 48.8895 151.176 49.0593 151.986 48.4197C152.497 48.036 152.732 47.4606 152.711 46.8855M119.8 42.8787C119.907 43.2408 120.141 43.6028 120.482 43.8583C121.312 44.4756 122.484 44.3258 123.123 43.4733C123.507 42.9618 123.593 42.3652 123.444 41.7902M122.096 51.228C122.203 51.5901 122.437 51.9522 122.777 52.2076C123.608 52.8249 124.78 52.675 125.419 51.8225C125.803 51.3111 125.888 50.7145 125.74 50.1394M93.229 54.6319C93.3992 54.9727 93.7186 55.2495 94.102 55.4197C95.039 55.8452 96.1683 55.4397 96.6163 54.4808C96.8722 53.9268 96.83 53.2878 96.5321 52.7767M97.2721 62.256C97.4423 62.5968 97.7617 62.8735 98.145 63.0437C99.0821 63.4692 100.211 63.0638 100.659 62.1049C100.915 61.5508 100.873 60.9118 100.575 60.4007M70.2966 72.8805C70.5734 73.1572 70.9141 73.37 71.3401 73.455C72.3625 73.6248 73.3429 72.9426 73.5139 71.92C73.6208 71.3021 73.4081 70.7058 73.0249 70.2799M76.1086 79.2467C76.3854 79.5234 76.7261 79.7363 77.1521 79.8212C78.1745 79.9911 79.1548 79.3088 79.3259 78.2862C79.4327 77.6683 79.2201 77.072 78.8369 76.6461M52.4519 97.3679C52.7926 97.5807 53.1973 97.6443 53.6234 97.6015C54.6673 97.4943 55.3921 96.5566 55.2862 95.5128C55.2227 94.8951 54.8396 94.384 54.3285 94.0861M59.8839 101.816C60.2247 102.028 60.6294 102.092 61.0555 102.049C62.0994 101.942 62.8242 101.004 62.7183 99.9607C62.6547 99.3429 62.2716 98.8319 61.7605 98.534M42.1254 124.727C42.5088 124.811 42.9136 124.79 43.2971 124.619C44.256 124.214 44.7253 123.106 44.3211 122.148C44.0871 121.573 43.5974 121.168 43.001 121.041M50.4747 126.937C50.8581 127.022 51.2629 127 51.6464 126.83C52.6053 126.425 53.0746 125.317 52.6704 124.358C52.4364 123.783 51.9467 123.379 51.3503 123.251M39.1047 153.594C39.4882 153.593 39.8717 153.465 40.2127 153.209C41.0439 152.591 41.1937 151.377 40.5551 150.568C40.172 150.057 39.597 149.823 39.0005 149.823M47.7537 153.588C48.1371 153.588 48.5206 153.46 48.8616 153.204C49.6928 152.586 49.8426 151.372 49.204 150.563C48.8209 150.051 48.2459 149.818 47.6494 149.818M43.3272 182.115C43.7107 182.03 44.073 181.795 44.3075 181.476C44.9471 180.666 44.82 179.473 44.0109 178.834C43.5211 178.43 42.9034 178.324 42.3494 178.494M51.7217 180.023C52.1052 179.937 52.4675 179.703 52.702 179.383C53.3416 178.573 53.2145 177.38 52.4054 176.742C51.9157 176.337 51.298 176.231 50.744 176.402M55.241 209.035C55.582 208.822 55.8591 208.545 56.0084 208.14C56.4138 207.181 55.9457 206.073 54.9873 205.669C54.4123 205.435 53.7945 205.5 53.2831 205.798M62.7421 204.727C63.0831 204.514 63.3602 204.237 63.5096 203.832C63.9149 202.873 63.4468 201.766 62.4885 201.362C61.9134 201.128 61.2956 201.192 60.7842 201.491M73.079 231.392C73.3561 231.115 73.5481 230.753 73.591 230.326C73.7407 229.283 73.017 228.346 71.9732 228.197C71.3342 228.112 70.7589 228.347 70.3539 228.752M79.2183 225.296C79.4954 225.019 79.6873 224.657 79.7302 224.231C79.8799 223.187 79.1562 222.25 78.1124 222.102C77.4734 222.017 76.8981 222.251 76.4931 222.656M151.349 262.939C152.905 261.383 153.654 255.609 151.354 253.352M208.342 247.461C208.834 245.309 206.323 240.027 203.171 239.39M249.396 205.257C248.844 203.127 244.159 199.636 241.048 200.533M264.021 149.755C262.509 148.925 255.777 149.185 254.435 149.761M248.247 93.8233C246.309 92.9936 241.047 94.5092 239.98 97.407M206.582 52.4139C204.43 52.8625 200.7 57.3596 201.422 60.512M151.097 38.1099C149.541 39.6659 148.792 45.4394 151.091 47.6961M94.5079 53.5661C93.8676 55.6542 95.9946 61.1064 99.083 61.978M53.7739 95.1942C54.2626 97.3455 58.8406 100.986 61.9513 100.174M39.1914 151.165C40.7456 152.719 46.5182 153.461 48.7776 151.159M54.2197 206.991C56.307 207.629 61.7617 205.452 62.637 202.363M96.4812 248.485C98.5055 247.61 101.278 242.453 99.9162 239.514M0.783356 150.698L1.84738 150.698M5.29899 150.695L13.9053 150.69M15.6309 150.71L299.277 150.565M300.981 150.565L302.045 150.564M151.524 0L151.523 1.06403M151.521 4.51501L151.516 13.1213M151.515 14.8683L151.306 298.493M151.305 300.198L151.304 301.262M233.67 68.3751C188.295 23 114.684 23.0431 69.2554 68.4715C23.827 113.9 23.7838 187.511 69.159 232.886C114.534 278.261 188.145 278.218 233.573 232.79C279.002 187.361 279.045 113.75 233.67 68.3751ZM231.027 71.0181C187.11 27.101 115.864 27.1428 71.8953 71.1115C27.9267 115.08 27.8849 186.326 71.8021 230.243C115.719 274.16 186.965 274.118 230.933 230.15C274.902 186.181 274.944 114.935 231.027 71.0181ZM224.76 77.2849C184.3 36.8246 118.662 36.8631 78.1547 77.3708C37.647 117.878 37.6086 183.516 78.0688 223.976C118.529 264.436 184.166 264.398 224.674 223.89C265.182 183.383 265.22 117.745 224.76 77.2849ZM221.776 80.269C182.962 41.4549 119.995 41.4918 81.1354 80.3514C42.2758 119.211 42.2389 182.178 81.0529 220.992C119.867 259.806 182.834 259.769 221.693 220.91C260.553 182.05 260.59 119.083 221.776 80.269Z" stroke="url(#paint0_linear_56_616)" stroke-width="0.2" stroke-miterlimit="10"/>
<defs>
<linearGradient id="paint0_linear_56_616" x1="341.496" y1="-7.49988e-05" x2="-118.237" y2="27.485" gradientUnits="userSpaceOnUse">
<stop stop-color="#6E3E2F"/>
<stop offset="1" stop-color="#925846"/>
</linearGradient>
</defs>
</svg>
