<svg width="23" height="24" viewBox="0 0 23 24" fill="none" xmlns="http://www.w3.org/2000/svg">
<path d="M2.02165 22.7519C1.44535 22.7519 0.964536 22.5597 0.579222 22.1753C0.193908 21.7909 0.000834013 21.3113 0 20.7363V4.79875C0 4.22465 0.193074 3.7454 0.579222 3.361C0.96537 2.9766 1.44618 2.78398 2.02165 2.78315H4.2347V0H5.58205V2.78315H14.5318V0H15.7829V2.78315H17.9959C18.5714 2.78315 19.0522 2.97577 19.4383 3.361C19.8245 3.74623 20.0172 4.2259 20.0163 4.8V10.7295C20.0163 10.9075 19.9567 11.0561 19.8374 11.175C19.7182 11.294 19.5693 11.3535 19.3908 11.3535C19.2123 11.3535 19.0635 11.294 18.9442 11.175C18.8249 11.0561 18.7653 10.9075 18.7653 10.7295V9.79095H1.25102V20.7363C1.25102 20.9277 1.33109 21.1037 1.49122 21.2643C1.65135 21.4249 1.82774 21.5047 2.0204 21.5039H10.0707C10.2492 21.5039 10.3981 21.5634 10.5173 21.6824C10.6366 21.8013 10.6962 21.9499 10.6962 22.1279C10.6962 22.306 10.6366 22.4545 10.5173 22.5735C10.3981 22.6925 10.2492 22.7519 10.0707 22.7519H2.02165ZM17.9959 24C16.6023 24 15.4197 23.5158 14.448 22.5473C13.4772 21.5771 12.9918 20.3973 12.9918 19.0078C12.9918 17.6183 13.4772 16.4389 14.448 15.4696C15.4188 14.5003 16.601 14.0156 17.9947 14.0156C19.3883 14.0156 20.5709 14.5003 21.5426 15.4696C22.5142 16.4389 23 17.6183 23 19.0078C23 20.3973 22.5142 21.5771 21.5426 22.5473C20.5709 23.5174 19.3887 24.0017 17.9959 24ZM20.0664 21.756L20.7494 21.0746L18.4763 18.8056V15.4084H17.5143V19.21L20.0664 21.756Z" fill="white"/>
</svg>
