<svg width="20" height="20" viewBox="0 0 20 20" fill="none" xmlns="http://www.w3.org/2000/svg">
<path d="M9.99884 0.399906C7.59244 0.397923 5.27319 1.30446 3.50113 2.93969C1.72907 4.57492 0.633648 6.8194 0.432145 9.22792C0.230643 11.6364 0.937781 14.0331 2.4133 15.9424C3.88881 17.8517 6.02491 19.1343 8.3979 19.5357V12.0513H6.0831V9.35791H8.39849V7.37191C8.39849 5.06791 9.79992 3.81211 11.8465 3.81211C12.5371 3.80975 13.2272 3.84501 13.914 3.91771V6.32611H12.494C11.3811 6.32611 11.1667 6.85711 11.1667 7.63651V9.3555H13.822L13.4755 12.0489H11.1661V19.5999C13.5923 19.3029 15.8141 18.0868 17.3779 16.2002C18.9417 14.3135 19.7296 11.8984 19.5806 9.44804C19.4316 6.99767 18.3571 4.69682 16.5763 3.01526C14.7956 1.3337 12.443 0.398249 9.99884 0.399906Z" fill="#6E3E2F"/>
</svg>
