<svg width="14" height="14" viewBox="0 0 14 14" fill="none" xmlns="http://www.w3.org/2000/svg">
<path d="M11.6667 1.66665H10.3333V0.99998C10.3333 0.823169 10.2631 0.653599 10.1381 0.528575C10.013 0.403551 9.84348 0.333313 9.66667 0.333313C9.48986 0.333313 9.32029 0.403551 9.19526 0.528575C9.07024 0.653599 9 0.823169 9 0.99998V1.66665H5V0.99998C5 0.823169 4.92976 0.653599 4.80474 0.528575C4.67971 0.403551 4.51014 0.333313 4.33333 0.333313C4.15652 0.333313 3.98695 0.403551 3.86193 0.528575C3.73691 0.653599 3.66667 0.823169 3.66667 0.99998V1.66665H2.33333C1.8029 1.66665 1.29419 1.87736 0.91912 2.25243C0.544048 2.62751 0.333334 3.13621 0.333334 3.66665V11.6666C0.333334 12.1971 0.544048 12.7058 0.91912 13.0809C1.29419 13.4559 1.8029 13.6666 2.33333 13.6666H11.6667C12.1971 13.6666 12.7058 13.4559 13.0809 13.0809C13.456 12.7058 13.6667 12.1971 13.6667 11.6666V3.66665C13.6667 3.13621 13.456 2.62751 13.0809 2.25243C12.7058 1.87736 12.1971 1.66665 11.6667 1.66665ZM12.3333 11.6666C12.3333 11.8435 12.2631 12.013 12.1381 12.1381C12.013 12.2631 11.8435 12.3333 11.6667 12.3333H2.33333C2.15652 12.3333 1.98695 12.2631 1.86193 12.1381C1.73691 12.013 1.66667 11.8435 1.66667 11.6666V6.99998H12.3333V11.6666ZM12.3333 5.66665H1.66667V3.66665C1.66667 3.48984 1.73691 3.32027 1.86193 3.19524C1.98695 3.07022 2.15652 2.99998 2.33333 2.99998H3.66667V3.66665C3.66667 3.84346 3.73691 4.01303 3.86193 4.13805C3.98695 4.26307 4.15652 4.33331 4.33333 4.33331C4.51014 4.33331 4.67971 4.26307 4.80474 4.13805C4.92976 4.01303 5 3.84346 5 3.66665V2.99998H9V3.66665C9 3.84346 9.07024 4.01303 9.19526 4.13805C9.32029 4.26307 9.48986 4.33331 9.66667 4.33331C9.84348 4.33331 10.013 4.26307 10.1381 4.13805C10.2631 4.01303 10.3333 3.84346 10.3333 3.66665V2.99998H11.6667C11.8435 2.99998 12.013 3.07022 12.1381 3.19524C12.2631 3.32027 12.3333 3.48984 12.3333 3.66665V5.66665Z" fill="#616161"/>
</svg>
