<svg width="12" height="14" viewBox="0 0 12 14" fill="none" xmlns="http://www.w3.org/2000/svg">
<path d="M5.99935 6.99992C6.36602 6.99992 6.68002 6.86947 6.94135 6.60859C7.20268 6.3477 7.33313 6.0337 7.33268 5.66659C7.33224 5.29947 7.20179 4.9857 6.94135 4.72525C6.6809 4.46481 6.3669 4.33414 5.99935 4.33325C5.63179 4.33236 5.31802 4.46303 5.05802 4.72525C4.79802 4.98747 4.66735 5.30125 4.66602 5.66659C4.66468 6.03192 4.79535 6.34592 5.05802 6.60859C5.32068 6.87125 5.63446 7.0017 5.99935 6.99992ZM5.99935 11.8999C7.3549 10.6555 8.36046 9.52503 9.01602 8.50858C9.67157 7.49214 9.99935 6.58925 9.99935 5.79992C9.99935 4.58881 9.61335 3.59725 8.84135 2.82525C8.06935 2.05325 7.12202 1.66703 5.99935 1.66659C4.87668 1.66614 3.92957 2.05236 3.15802 2.82525C2.38646 3.59814 2.00024 4.5897 1.99935 5.79992C1.99935 6.58881 2.32713 7.4917 2.98268 8.50858C3.63824 9.52547 4.64379 10.6559 5.99935 11.8999ZM5.99935 13.6666C4.21046 12.1444 2.87446 10.7306 1.99135 9.42525C1.10824 8.11992 0.66646 6.91147 0.666016 5.79992C0.666016 4.13325 1.20224 2.80547 2.27468 1.81659C3.34713 0.827696 4.58868 0.333252 5.99935 0.333252C7.41002 0.333252 8.65179 0.827696 9.72468 1.81659C10.7976 2.80547 11.3336 4.13325 11.3327 5.79992C11.3327 6.91103 10.8911 8.11947 10.008 9.42525C9.12491 10.731 7.78868 12.1448 5.99935 13.6666Z" fill="#616161"/>
</svg>
