<svg width="20" height="19" viewBox="0 0 20 19" fill="none" xmlns="http://www.w3.org/2000/svg">
<g clip-path="url(#clip0_245_2520)">
<path d="M6.22373 18.6619C5.07961 18.6619 3.93132 18.6997 2.78719 18.6578C1.43356 18.6033 0.398438 17.4676 0.398438 16.1139C0.398438 11.7428 0.406846 7.37176 0.398438 2.99653C0.398438 1.50034 1.56771 0.456885 2.91293 0.419164C4.3211 0.381443 5.73336 0.410756 7.14569 0.410756C7.17084 0.410756 7.20439 0.398182 7.21697 0.440068C7.20856 0.51551 7.13312 0.523918 7.08707 0.553231C6.25728 1.03936 5.4987 1.62191 4.86169 2.3427C3.80975 3.53287 3.08055 4.89915 2.83332 6.48744C2.39749 9.29113 3.2734 11.6716 5.25564 13.658C5.6077 14.0143 5.65375 14.2909 5.37296 14.7686C5.03348 15.3427 4.51803 15.7325 3.96904 16.0888C3.91034 16.1223 3.85171 16.1642 3.79301 16.2019C3.70499 16.2774 3.75945 16.3151 3.83489 16.3486C3.85163 16.3864 3.87261 16.4199 3.89776 16.4534C4.37972 16.8809 4.83654 17.3376 5.3101 17.7735C5.53218 17.9789 5.75434 18.1926 5.96809 18.4064C6.05611 18.486 6.20275 18.5111 6.22373 18.662V18.6619Z" fill="#6E3E2F"/>
<path d="M6.22477 18.662C6.20379 18.5153 6.05715 18.4902 5.96913 18.4022C5.75538 18.1843 5.5333 17.9747 5.31114 17.7694C4.83758 17.3335 4.38077 16.8767 3.89881 16.4492C3.87366 16.4157 3.85268 16.3822 3.83594 16.3445C4.90462 16.554 5.94815 16.4115 6.97487 16.0972C7.32269 15.9925 7.67058 15.8877 8.02257 15.7997C8.26147 15.7369 8.51286 15.7494 8.74343 15.8333C11.4005 16.7469 14.0239 16.6631 16.6055 15.5315C17.6574 15.0663 18.6171 14.4125 19.4302 13.5953C19.472 13.5534 19.5014 13.4906 19.5769 13.4863C19.6146 13.545 19.5936 13.6079 19.5936 13.6707V16.1223C19.602 17.5221 18.4789 18.662 17.0791 18.6745H17.0581C15.5495 18.6829 14.0407 18.6745 12.532 18.6745H6.47624C6.39239 18.6661 6.30862 18.662 6.22477 18.662V18.662Z" fill="#6E3E2F"/>
<path d="M6.87848 9.28279C7.51132 9.28279 8.10637 9.27862 8.69733 9.28279C9.02841 9.28695 9.20861 9.42526 9.24216 9.68931C9.27989 10.0204 9.08712 10.2425 8.72672 10.2467C8.04782 10.2551 7.37309 10.2509 6.69412 10.2509C6.49718 10.2509 6.30433 10.2593 6.1074 10.2467C5.86433 10.2341 5.62544 10.1838 5.50811 9.93237C5.39078 9.6809 5.47455 9.45465 5.63384 9.24923C6.27926 8.42786 6.92885 7.60224 7.57843 6.78079C7.61616 6.7305 7.65388 6.6802 7.6916 6.63407C7.64971 6.5628 7.59101 6.59635 7.54071 6.59219C7.08806 6.58802 6.63133 6.59219 6.17867 6.58802C6.07392 6.58802 5.96917 6.57545 5.86858 6.55447C5.62968 6.50001 5.48304 6.26111 5.5375 6.02645C5.57522 5.86716 5.70095 5.73726 5.86017 5.69954C5.96076 5.67439 6.06551 5.66182 6.17027 5.66182C6.91628 5.65765 7.66637 5.65765 8.41238 5.66182C8.54653 5.65765 8.67643 5.67439 8.80633 5.70794C9.09128 5.80437 9.21285 6.06834 9.09969 6.34496C8.9991 6.58386 8.83989 6.7892 8.68059 6.99454C8.1316 7.69442 7.5826 8.39014 7.0336 9.08161C6.98748 9.13607 6.94559 9.19061 6.87855 9.28279H6.87848Z" fill="#6E3E2F"/>
<path d="M12.7617 7.27525C12.7576 6.94001 12.4474 6.72625 12.1163 6.79329C11.9445 6.82684 11.8397 6.94834 11.7391 7.07824C11.2153 6.62142 10.6369 6.59211 10.067 6.93152C9.37966 7.33388 9.12402 7.98763 9.21204 8.75454C9.29589 9.46283 9.60182 10.0453 10.3478 10.2884C10.813 10.4393 11.2446 10.3848 11.6259 10.0746C11.7265 9.99501 11.7558 10.0117 11.8271 10.0998C11.9654 10.28 12.2043 10.3428 12.4138 10.2632C12.6192 10.2004 12.7617 10.0076 12.7617 9.78967C12.7701 8.95148 12.7742 8.11329 12.7617 7.27517L12.7617 7.27525ZM11.5338 9.11501C11.492 9.16947 11.4458 9.2156 11.3955 9.25332C11.0896 9.47965 10.6579 9.41678 10.4316 9.11501C10.3226 8.96829 10.264 8.79234 10.2556 8.6079C10.2514 8.01702 10.5741 7.66079 11.0351 7.6901C11.232 7.69427 11.4164 7.79069 11.5338 7.95415C11.7684 8.27266 11.7684 8.79651 11.5338 9.11501H11.5338Z" fill="#6E3E2F"/>
<path d="M18.1998 8.4531C18.1669 7.42307 17.4128 6.71308 16.3719 6.72126C16.3555 6.72142 16.3389 6.72172 16.3223 6.72226C15.3794 6.7498 14.6979 7.45871 14.6441 8.43467C14.6405 8.4997 14.6397 8.56596 14.6418 8.6333C14.6408 8.69756 14.6431 8.76081 14.6486 8.82291C14.7266 9.71085 15.4519 10.3724 16.3825 10.3741C16.448 10.3741 16.5147 10.3709 16.5821 10.3641C17.5838 10.2635 18.2333 9.5133 18.1998 8.45303V8.4531ZM15.8739 9.11943C15.7482 8.94764 15.6853 8.74222 15.6937 8.53271C15.6937 8.00886 16.0122 7.66521 16.4649 7.69036C16.6618 7.69452 16.8462 7.79511 16.9636 7.9544C17.2025 8.27291 17.2025 8.80933 16.9594 9.12784C16.9217 9.16972 16.884 9.21169 16.8378 9.24517C16.5361 9.47982 16.1044 9.4212 15.8739 9.11943Z" fill="#6E3E2F"/>
<path d="M14.2725 7.79911C14.2725 8.4487 14.2766 9.09829 14.2725 9.74787C14.2766 10.0454 14.042 10.2927 13.7445 10.301C13.6942 10.301 13.6397 10.2969 13.5894 10.2843C13.3799 10.2298 13.2206 10.0077 13.2206 9.74371V6.41201C13.2206 6.21507 13.2164 6.02222 13.2206 5.82529C13.2248 5.50262 13.4301 5.29303 13.7403 5.29303C14.0588 5.28886 14.2725 5.49837 14.2725 5.83362C14.2767 6.48737 14.2725 7.14536 14.2725 7.79911H14.2725Z" fill="#6E3E2F"/>
</g>
<rect x="0.498438" y="0.499902" width="19" height="18.0784" rx="4.2" stroke="#6E3E2F" stroke-width="0.2"/>
<defs>
<clipPath id="clip0_245_2520">
<rect x="0.398438" y="0.399902" width="19.2" height="18.2784" rx="4.3" fill="white"/>
</clipPath>
</defs>
</svg>
